<svg enable-background="new 0 0 512.012 512.012" viewBox="0 0 512.012 512.012" xmlns="http://www.w3.org/2000/svg"><path d="m118.694 330.764c-5.664-2.624-12.32-1.696-17.088 2.368l-64 54.72c-3.552 3.04-5.6 7.488-5.6 12.16v96c0 8.832 7.168 16 16 16h64c8.832 0 16-7.168 16-16v-150.72c0-6.24-3.648-11.904-9.312-14.528z"/><path d="m246.694 221.004c-5.632-2.624-12.32-1.696-17.088 2.368l-64 54.72c-3.552 3.04-5.6 7.488-5.6 12.16v205.76c0 8.832 7.168 16 16 16h64c8.832 0 16-7.168 16-16v-260.48c0-6.24-3.648-11.936-9.312-14.528z"/><path d="m374.694 111.244c-5.664-2.624-12.32-1.696-17.088 2.368l-64 54.72c-3.552 3.04-5.6 7.488-5.6 12.16v315.52c0 8.832 7.168 16 16 16h64c8.832 0 16-7.168 16-16v-370.24c0-6.24-3.616-11.904-9.312-14.528z"/><path d="m502.694 1.484c-5.632-2.624-12.352-1.728-17.088 2.368l-64 54.72c-3.552 3.04-5.6 7.488-5.6 12.16v425.28c0 8.832 7.168 16 16 16h64c8.832 0 16-7.168 16-16v-480c0-6.24-3.616-11.936-9.312-14.528z"/><path d="m208.006 64.012c-8.832 0-16 7.168-16 16v48h-32v-96h48c8.832 0 16-7.168 16-16s-7.168-16-16-16h-64c-8.832 0-16 7.168-16 16v128c0 8.832 7.168 16 16 16h64c8.832 0 16-7.168 16-16v-64c0-8.832-7.168-16-16-16z"/><path d="m80.006.012c-8.832 0-16 7.168-16 16v48h-32v-48c0-8.832-7.168-16-16-16s-16 7.168-16 16v64c0 8.832 7.168 16 16 16h48v48c0 8.832 7.168 16 16 16s16-7.168 16-16v-128c0-8.832-7.168-16-16-16z"/></svg>