<svg enable-background="new 0 0 30.743 30.744" height="30.744" viewBox="0 0 30.743 30.744" width="30.743" xmlns="http://www.w3.org/2000/svg"><path d="m28.585 9.67h-.842v9.255c0 1.441-.839 2.744-2.521 2.744h-16.479v.44c0 1.274 1.449 2.56 2.937 2.56h12.599l4.82 2.834-.699-2.834h.185c1.487 0 2.158-1.283 2.158-2.56v-10.242c0-1.274-.671-2.197-2.158-2.197z"/><path d="m22.762 3.24h-19.14c-1.684 0-3.622 1.496-3.622 2.938v11.6c0 1.328 1.642 2.287 3.217 2.435l-1.025 3.891 6.568-3.864h14.002c1.684 0 3.238-1.021 3.238-2.462v-9.385-2.215c0-1.442-1.555-2.938-3.238-2.938zm-16.22 9.792c-.955 0-1.729-.774-1.729-1.729s.774-1.729 1.729-1.729c.954 0 1.729.774 1.729 1.729s-.775 1.729-1.729 1.729zm6.458 0c-.955 0-1.729-.774-1.729-1.729s.774-1.729 1.729-1.729 1.729.774 1.729 1.729-.774 1.729-1.729 1.729zm6.459 0c-.955 0-1.73-.774-1.73-1.729s.775-1.729 1.73-1.729c.953 0 1.729.774 1.729 1.729s-.776 1.729-1.729 1.729z"/></svg>