<svg enable-background="new 0 0 53 53" height="512" viewBox="0 0 53 53" width="512" xmlns="http://www.w3.org/2000/svg"><path d="m29.0809612 21.4620476v-3.0300293l-12.3599854 7.9400024v11.2600098l9.5200195-3.1300049c-1.9500731-4.5200195-.7600097-9.7800293 2.8399659-13.039978z"/><path d="m30.2009563 17.7120476v2.8599854c.2700195-.1900024.5500488-.3699951.8399658-.5400391.8601074-.5 1.7800274-.8799438 2.7299786-1.1399536l-1.4399414-2.5400391z"/><path d="m42.5609398 20.0319939v-10.2599488l-6.8599854 4.3999634 2.4901123 4.4000244c1.5499268.1900025 3.039917.6900025 4.3698731 1.459961z"/><path d="m30.2009563 16.5319939 2.4700909-1.5999756 2.119873 3.7299805c.6600342-.1199951 1.3300781-.1799927 2-.1799927.0700684 0 .1401367 0 .210083.0100098l-2.6400146-4.6499634 8.1999512-5.2600098v-1.5800171l-.8199463-.2700195-11.5400372 7.4200439z"/><path d="m30.2005901 2.9326894v10.0283206l10.3159161-6.6306153z"/><path d="m29.0814495 14.8694572-3.4267578 2.2026978-4.892334-11.3997192-1.9050293.6276245 5.1010742 11.862915-7.2373047 4.6570435v2.376831l12.3603516-7.9492187z"/><path d="m4.8054481 34.0349236 10.9156489 3.5958251v-10.97052l-3.5166016-3.545105z"/><path d="m3.2406287 8.3964348 12.4804683 12.5906982v-13.9833374l-12.4804683-4.1103518z"/><path d="m3.2406287 14.0763664v15.1285401l6.0957027-8.9833374z"/><path d="m3.2406287 12.6561394 7.3847652 7.446289-7.3847652 10.8828125v2.5341797l.578125.1894531 8.2392574-12.1601562 3.6630859 3.6915283v-2.8324585l-12.4804683-12.5905151z"/><path d="m29.0814495 13.6803703v-10.7486574l-7.3649902 2.4263918 4.3913574 10.2335815z"/><path d="m17.9044476 6.613903-1.1833497.3898926v14.6275025l5.9833985-3.8511353z"/><path d="m49.1510277 45.2020378-4.8400879-6.5200195c-.5300293.460022-1.1099854.8800049-1.7399902 1.2399902-.6298828.3599854-1.2800293.6600342-1.9499512.9000244l3.25 7.4400024c.7299805 1.6799927 2.7600098 2.3499756 4.3499756 1.4299927s2.0300293-3.0200195.9300537-4.4899902z"/><path d="m42.8578148 26.4715691c-1.2958984-2.2363281-3.6503906-3.4873047-6.0664063-3.4873047-1.1894531 0-2.3945313.3027344-3.4960938.9414063-1.6171856.9365234-2.772459 2.4472656-3.2529278 4.2539063-.4814453 1.8056641-.2304688 3.6914063.7070313 5.3085938.9365234 1.6171875 2.4472637 2.7724609 4.2539043 3.2529297 1.8027344.4824219 3.6904297.2304688 5.3076172-.7070313 1.6181641-.9365234 2.7734375-2.4472656 3.2539063-4.2539063.4814454-1.8056642.2304688-3.6914063-.7070312-5.3085938zm-3.0761719 1.9140625-3.8955078 3.8955078c-.0976563.0976563-.2255859.1464844-.3535156.1464844s-.2558594-.0488281-.3535156-.1464844l-1.3544922-1.3544922c-.1953125-.1953125-.1953125-.5117188 0-.7070313s.5117188-.1953125.7070313 0l1.0009766 1.0009766 3.5419922-3.5419922c.1953125-.1953125.5117188-.1953125.7070313 0s.1953123.5117188-.0000002.7070313z"/><path d="m45.8855247 24.7173576c-2.9063721-5.0158691-9.3286133-6.7259521-14.3444805-3.8195801s-6.7259521 9.3286133-3.8195801 14.3444824 9.3286114 6.7259521 14.3444805 3.8195801 6.7259522-9.3286132 3.8195801-14.3444824zm-9.0687255 13.2630005c-.6904297 0-1.3857422-.0898438-2.0712891-.2724609-2.0644531-.5498047-3.7910137-1.8701172-4.8613262-3.7177734-1.0712891-1.8486328-1.3583984-4.0039063-.8085938-6.0683594s1.8701172-3.7910156 3.7177715-4.8613281c3.8164063-2.2109375 8.71875-.9042969 10.9296875 2.9091797 1.0712891 1.8486328 1.3583984 4.0039063.8085938 6.0683594s-1.8710938 3.7910156-3.71875 4.8613281c-1.2353515.7158202-2.6064453 1.0810546-3.9960937 1.0810546z"/></svg>