<svg enable-background="new 0 0 217.243 217.243" viewBox="0 0 217.243 217.243" xmlns="http://www.w3.org/2000/svg"><path d="m217.144 69.331c-.804-15.973-7.174-30.984-17.936-42.272-10.987-11.524-25.352-17.869-40.45-17.869-21.959 0-37.959 12.409-46.554 19.076-1.142.886-2.466 1.912-3.448 2.607-.778-.593-1.758-1.386-2.613-2.079-7.859-6.363-24.211-19.604-47.654-19.604-15.097 0-29.462 6.346-40.449 17.869-10.763 11.288-17.134 26.301-17.937 42.272-.798 15.912 3.023 29.753 12.393 44.878 7.257 11.717 26.627 34.521 47.104 55.453 10.459 10.691 20.121 19.773 27.939 26.264 12.949 10.749 18.12 12.127 21.179 12.127 7.798 0 24.318-12.893 49.104-38.321 20.298-20.824 39.597-43.657 46.932-55.526 6.305-10.204 13.412-24.526 12.39-44.875z"/></svg>