<svg fill="none" height="800" viewBox="0 0 24 24" width="800" xmlns="http://www.w3.org/2000/svg"><g stroke="#000" stroke-linecap="round" stroke-linejoin="round" stroke-width="2"><path d="m8.10008 21.221c-1.38987-1.9835-2.2075-4.3967-2.2075-7.0023 0-3.3744 2.73392-6.10932 6.10632-6.10932 3.3723 0 6.1062 2.73492 6.1062 6.10932"/><path d="m8.10008 21.221c-1.38987-1.9835-2.2075-4.3967-2.2075-7.0023 0-3.3744 2.73392-6.10932 6.10632-6.10932 3.3723 0 6.1062 2.73492 6.1062 6.10932"/><path d="m18.4361 20.3118c-.1099.0061-.2179.0163-.3288.0163-3.3724 0-6.1063-2.735-6.1063-6.1093"/><path d="m18.4361 20.3118c-.1099.0061-.2179.0163-.3288.0163-3.3724 0-6.1063-2.735-6.1063-6.1093"/><path d="m13.2694 21.9999c-2.5944-1.6179-4.32235-4.4975-4.32235-7.7812 0-1.6872 1.36745-3.0547 3.05365-3.0547s3.0536 1.3675 3.0536 3.0547 1.3675 3.0546 3.0537 3.0546 3.0536-1.3674 3.0536-3.0546c0-5.0616-4.1014-9.16401-9.1599-9.16401-5.05851 0-9.1599 4.10241-9.1599 9.16401 0 1.1282.12626 2.2268.35841 3.2858"/><path d="m13.2694 21.9999c-2.5944-1.6179-4.32235-4.4975-4.32235-7.7812 0-1.6872 1.36745-3.0547 3.05365-3.0547s3.0536 1.3675 3.0536 3.0547 1.3675 3.0546 3.0537 3.0546 3.0536-1.3674 3.0536-3.0546c0-5.0616-4.1014-9.16401-9.1599-9.16401-5.05851 0-9.1599 4.10241-9.1599 9.16401 0 1.1282.12626 2.2268.35841 3.2858"/><path d="m20.5257 5.86313c-2.0822-2.36533-5.1267-3.86313-8.5255-3.86313-3.39884 0-6.44333 1.4978-8.52559 3.86313"/><path d="m20.5257 5.86313c-2.0822-2.36533-5.1267-3.86313-8.5255-3.86313-3.39884 0-6.44333 1.4978-8.52559 3.86313"/></g></svg>