<svg enable-background="new 0 0 512 512" viewBox="0 0 512 512" xmlns="http://www.w3.org/2000/svg"><path d="m46.545 162.909h395.636v186.182h-395.636z"/><path d="m488.727 209.455v-46.545c0-25.706-20.839-46.545-46.545-46.545h-395.637c-25.706-.001-46.545 20.838-46.545 46.544v186.182c0 25.706 20.839 46.545 46.545 46.545h395.636c25.706 0 46.545-20.839 46.545-46.545v-46.545c12.853 0 23.273-10.42 23.273-23.273v-46.545c.001-12.854-10.419-23.273-23.272-23.273zm-23.272 139.636c0 12.853-10.42 23.273-23.273 23.273h-395.637c-12.853 0-23.273-10.42-23.273-23.273v-186.182c0-12.853 10.42-23.273 23.273-23.273h395.636c12.853 0 23.273 10.42 23.273 23.273v186.182z"/></svg>