<svg enable-background="new 0 0 512 512" height="512" viewBox="0 0 512 512" width="512" xmlns="http://www.w3.org/2000/svg"><path d="m128 512h51c2.761 0 5-2.239 5-5v-102.605c0-2.336-1.631-4.306-3.897-4.873-7.191-1.798-12.45-8.458-12.086-16.288.401-8.608 7.813-15.234 16.431-15.234h143.102c8.618 0 16.03 6.626 16.431 15.234.365 7.83-4.895 14.491-12.086 16.288-2.266.566-3.897 2.537-3.897 4.873v102.605c0 2.761 2.239 5 5 5h46c2.761 0 5-2.232 5-4.993 0-48.311 0-422.285 0-411.007 0-8.837-7.163-16-16-16h-223.998c-8.837 0-16 7.163-16 16zm184-368c0-8.84 7.16-16 16-16s16 7.16 16 16v16c0 8.84-7.16 16-16 16s-16-7.16-16-16zm0 80c0-8.84 7.16-16 16-16s16 7.16 16 16v16c0 8.84-7.16 16-16 16s-16-7.16-16-16zm0 80c0-8.84 7.16-16 16-16s16 7.16 16 16v16c0 8.84-7.16 16-16 16s-16-7.16-16-16zm-72-160c0-8.84 7.16-16 16-16s16 7.16 16 16v16c0 8.84-7.16 16-16 16s-16-7.16-16-16zm0 80c0-8.84 7.16-16 16-16s16 7.16 16 16v16c0 8.84-7.16 16-16 16s-16-7.16-16-16zm0 80c0-8.84 7.16-16 16-16s16 7.16 16 16v16c0 8.84-7.16 16-16 16s-16-7.16-16-16zm-72-160c0-8.84 7.16-16 16-16s16 7.16 16 16v16c0 8.84-7.16 16-16 16s-16-7.16-16-16zm0 80c0-8.84 7.16-16 16-16s16 7.16 16 16v16c0 8.84-7.16 16-16 16s-16-7.16-16-16zm0 80c0-8.84 7.16-16 16-16s16 7.16 16 16v16c0 8.84-7.16 16-16 16s-16-7.16-16-16z"/><path d="m221 512h70c2.761 0 5-2.239 5-5v-102c0-2.761-2.239-5-5-5h-70c-2.761 0-5 2.239-5 5v102c0 2.761 2.239 5 5 5z"/><path d="m344 16c0-8.837-7.163-16-16-16h-144c-8.837 0-16 7.163-16 16v27c0 2.761 2.239 5 5 5h166c2.761 0 5-2.239 5-5z"/><path d="m496 184h-75c-2.761 0-5 2.239-5 5v318c0 2.761 2.239 5 5 5h75c8.837 0 16-7.163 16-16v-296c0-8.837-7.163-16-16-16zm-16 240c0 8.84-7.16 16-16 16s-16-7.16-16-16v-16c0-8.84 7.16-16 16-16s16 7.16 16 16zm0-72c0 8.84-7.16 16-16 16s-16-7.16-16-16v-16c0-8.84 7.16-16 16-16s16 7.16 16 16zm0-72c0 8.84-7.16 16-16 16s-16-7.16-16-16v-16c0-8.84 7.16-16 16-16s16 7.16 16 16z"/><path d="m0 200v296c0 8.837 7.163 16 16 16h75c2.761 0 5-2.239 5-5v-318c0-2.761-2.239-5-5-5h-75c-8.837 0-16 7.163-16 16zm32 64c0-8.84 7.16-16 16-16s16 7.16 16 16v16c0 8.84-7.16 16-16 16s-16-7.16-16-16zm0 72c0-8.84 7.16-16 16-16s16 7.16 16 16v16c0 8.84-7.16 16-16 16s-16-7.16-16-16zm0 72c0-8.84 7.16-16 16-16s16 7.16 16 16v16c0 8.84-7.16 16-16 16s-16-7.16-16-16z"/></svg>