<svg fill="none" height="800" viewBox="0 0 24 24" width="800" xmlns="http://www.w3.org/2000/svg"><path d="m12.5 3h-4.7c-1.68016 0-2.52024 0-3.16197.32698-.56449.28762-1.02343.74656-1.31105 1.31105-.32698.64173-.32698 1.48181-.32698 3.16197v8.4c0 1.6802 0 2.5202.32698 3.162.28762.5645.74656 1.0234 1.31105 1.311.64173.327 1.48181.327 3.16197.327h9.2c.93 0 1.395 0 1.7765-.1022 1.0352-.2774 1.8439-1.0861 2.1213-2.1213.1022-.3815.1022-.8465.1022-1.7765m-2-9v-6m-3 3h6m-11.5 3.5c0 1.10457-.89543 2-2 2s-2-.89543-2-2 .89543-2 2-2 2 .89543 2 2zm4.49 3.4181-8.45885 7.6899c-.47579.4326-.71368.6488-.73472.8362-.01824.1624.04402.3234.16676.4313.14159.1245.46309.1245 1.1061.1245h9.38671c1.4391 0 2.1587 0 2.7239-.2418.7095-.3035 1.2748-.8688 1.5783-1.5783.2418-.5652.2418-1.2848.2418-2.7239 0-.4843 0-.7264-.0529-.9518-.0666-.2834-.1941-.5488-.3738-.7778-.143-.1822-.3321-.3335-.7102-.6359l-2.7973-2.2378c-.3784-.3028-.5676-.4542-.776-.5076-.1837-.0471-.3769-.041-.5573.0176-.2046.0664-.3839.2294-.7425.5554z" stroke="#000" stroke-linecap="round" stroke-linejoin="round" stroke-width="2"/></svg>