<svg height="512" viewBox="0 0 32 32" width="512" xmlns="http://www.w3.org/2000/svg"><path d="m3 7h2.142c.447 1.72 2 3 3.858 3s3.411-1.28 3.858-3h16.142c.553 0 1-.448 1-1s-.447-1-1-1h-16.142c-.447-1.72-2-3-3.858-3s-3.411 1.28-3.858 3h-2.142c-.552 0-1 .448-1 1s.448 1 1 1zm6-3c1.103 0 2 .897 2 2s-.897 2-2 2-2-.897-2-2 .897-2 2-2z"/><path d="m29 15h-2.142c-.447-1.72-1.999-3-3.858-3s-3.411 1.28-3.858 3h-16.142c-.552 0-1 .448-1 1s.448 1 1 1h16.142c.447 1.72 1.999 3 3.858 3s3.411-1.28 3.858-3h2.142c.553 0 1-.448 1-1s-.447-1-1-1zm-6 3c-1.103 0-2-.897-2-2s.897-2 2-2 2 .897 2 2-.897 2-2 2z"/><path d="m29 25h-16.142c-.447-1.72-2-3-3.858-3s-3.411 1.28-3.858 3h-2.142c-.552 0-1 .448-1 1s.448 1 1 1h2.142c.447 1.72 2 3 3.858 3s3.411-1.28 3.858-3h16.142c.553 0 1-.448 1-1s-.447-1-1-1zm-20 3c-1.103 0-2-.897-2-2s.897-2 2-2 2 .897 2 2-.897 2-2 2z"/></svg>