<svg height="800" viewBox="0 0 24 24" width="800" xmlns="http://www.w3.org/2000/svg"><path d="m21 9a4 4 0 0 1 -4 4h-11a3 3 0 1 1 1.08-5.79 5 5 0 0 1 9-2.09 4.08 4.08 0 0 1 .92-.12 4 4 0 0 1 4 4zm-4.11 12.45 2-4a1 1 0 1 0 -1.78-.9l-2 4a1 1 0 0 0 .44 1.34.93.93 0 0 0 .45.11 1 1 0 0 0 .89-.55zm-8 0 2-4a1 1 0 1 0 -1.78-.9l-2 4a1 1 0 0 0 .44 1.34.93.93 0 0 0 .45.11 1 1 0 0 0 .89-.55zm5-2 1-2a1 1 0 1 0 -1.78-.9l-1 2a1 1 0 0 0 .44 1.34.93.93 0 0 0 .45.11 1 1 0 0 0 .89-.55zm-8 0 1-2a1 1 0 0 0 -1.78-.9l-1 2a1 1 0 0 0 .44 1.34.93.93 0 0 0 .45.11 1 1 0 0 0 .89-.55z"/></svg>