<svg height="800" viewBox="0 0 24 24" width="800" xmlns="http://www.w3.org/2000/svg"><g fill="none"><path d="m24 0v24h-24v-24zm-11.4065099 23.257841-.0115499.0016721-.0710625.0355308-.0189986.003703-.0151639-.003703-.0710604-.0355308c-.0098319-.0031469-.0186055-.0004896-.0235127.0053943l-.0041098.0109236-.0170913.4272787.0049537.0203897.0110101.0122145.1035729.0739792.0148714.0039203.0117661-.0039203.103575-.0739792.0126036-.0160406.0033589-.0165636-.0170917-.4272787c-.0019886-.0101297-.0085498-.0165317-.0160709-.01799zm.2649005-.1125548-.0138421.002021-.1847042.0923525-.0099621.0102455-.0026879.0112062.0179.4295275.0048406.0127789.0084511.0070753.2009542.0927458c.0120883.003661.0228931-.0002514.0284884-.0080125l.0039949-.0140625-.0341458-.6146308c-.0023895-.0119434-.0102675-.0195315-.0192871-.0212469zm-.7153433.002021c-.0098295-.0049147-.020871-.0020466-.0274108.0052882l-.0057192.0139377-.0341459.6146308c-.0006391.0115.0070385.0206963.0168767.0234037l.0156079-.0013287.2009546-.0927458.0094391-.0080584.0038546-.0117958.0178967-.4295275-.003156-.0125938-.0094919-.0088579z"/><path d="m13 3c0-.55228-.4477-1-1-1s-1 .44772-1 1v.9616l-.654-.3457c-.48825-.2581-1.09329-.07151-1.35139.41676s-.0715 1.09331.41676 1.35141l1.58863.83975v1.90219c-.715.18403-1.35263.56079-1.85422 1.07159l-1.64809-.95152.06708-1.79569c.02061-.5519-.41008-1.01601-.96198-1.03663-.5519-.02061-1.01601.41008-1.03663.96198l-.02761.73922-.83277-.48079c-.47829-.27615-1.08988-.11227-1.36602.36602-.27615.47829-.11227 1.08988.36602 1.36603l.83277.48079-.62638.39353c-.46766.29381-.60859.91106-.31478 1.37876.2938.4676.91108.6086 1.37874.3148l1.52156-.95597 1.64726.95107c-.09447.3408-.14495.6999-.14495 1.0708s.05048.73.14494 1.0708l-1.6473.9511-1.52156-.956c-.46766-.2938-1.08494-.1528-1.37874.3148-.29381.4677-.15287 1.085.31478 1.3788l.62638.3935-.83277.4808c-.47829.2761-.64216.8877-.36602 1.366s.88773.6422 1.36602.366l.83277-.4808.02761.7393c.02062.5519.48474.9826 1.03664.9619.55189-.0206.98259-.4847.96197-1.0366l-.06708-1.7957 1.64812-.9515c.50159.5108 1.13924.8876 1.85424 1.0716v1.9022l-1.58863.8397c-.48826.2581-.67486.8632-.41676 1.3514.2581.4883.86314.6749 1.35139.4168l.654-.3457v.9616c0 .5523.4477 1 1 1s1-.4477 1-1v-.9616l.654.3457c.4883.2581 1.0933.0715 1.3514-.4168.2581-.4882.0715-1.0933-.4167-1.3514l-1.5887-.8397v-1.9022c.7149-.184 1.3524-.5607 1.854-1.0714l1.6483.9517-.067 1.7957c-.0207.5519.41 1.016.9619 1.0366s1.016-.4101 1.0367-.962l.0276-.7392.8327.4808c.4783.2762 1.0899.1123 1.3661-.366.2761-.4783.1122-1.0899-.3661-1.366l-.8327-.4808.6264-.3936c.4676-.2938.6085-.911.3147-1.3787-.2938-.4676-.9111-.6086-1.3787-.3148l-1.5216.956-1.6473-.9512c.0945-.3409.145-.7001.145-1.0711s-.0505-.7302-.145-1.0712l1.6473-.95106 1.5215.95596c.4677.2938 1.085.1528 1.3788-.3148.2938-.4677.1529-1.08494-.3148-1.37874l-.6264-.39353.8328-.4808c.4783-.27614.6422-.88773.366-1.36602-.2761-.47829-.8877-.64217-1.366-.36603l-.8328.4808-.0276-.73923c-.0206-.5519-.4847-.98259-1.0366-.96197s-.9826.48473-.962 1.03663l.0671 1.79568-1.6483.95166c-.5016-.51067-1.1391-.88733-1.854-1.07133v-1.9022l1.5887-.83975c.4882-.2581.6748-.86314.4167-1.35141s-.8631-.67486-1.3514-.41676l-.654.3457z" fill="#09244b"/></g></svg>