<svg height="800" viewBox="0 0 256 256" width="800" xmlns="http://www.w3.org/2000/svg"><path d="m249 78c-1-2.8-3.9-4.2-6.7-3.2l-15.6 5.6c-3.3-6.8-8.4-12.2-15.1-16.5l7-14.9c1.4-2.9.3-5.7-2.5-7.1-2.9-1.4-5.7-.3-7.1 2.5l-7 14.9c-7.7-2.4-15.3-2.5-22.4-1.2l-5.6-15.5c-1-2.8-3.9-4.2-6.7-3.2s-4.2 3.9-3.2 6.7l5.6 15.6c-6.8 3.3-12.2 8.4-16.5 15.1l-14.9-7c-2.9-1.4-5.7-.3-7.1 2.5-1.4 2.9-.3 5.7 2.5 7.1l14.9 7c-1.3 4.1-1.9 8.2-2 12.2-5.6-2.2-11.6-3.4-18-3.4-24.7 0-45.1 18.3-48.4 42.1-3.3-1.1-6.7-1.8-10.3-1.8-18.6 0-33.7 15.1-33.7 33.7v.5c-1.5-.3-3-.5-4.6-.5-13.2 0-23.8 10.7-23.8 23.8 0 13.2 10.7 23.8 23.8 23.8 0 0 145.6-.8 146.6-.8 18.6 0 33.7-15.1 33.7-33.7s-15.1-33.7-33.7-33.7c-.3 0-.7.1-1 .1.1-1.5.2-3.1.2-4.7 0-1.3-.1-2.6-.2-3.9 7.1 2 14.2 2 20.8.7l5.6 15.6c1 2.8 3.9 4.2 6.7 3.2 1.4-.5 2.6-1.7 3-2.7.5-1 .7-2.6.1-4l-5.6-15.6c6.8-3.3 12.2-8.4 16.5-15.1l14.9 7c2.9 1.4 5.7.3 7.1-2.5 1.4-2.9.3-5.7-2.5-7.1l-14.9-7c2.4-7.7 2.5-15.3 1.2-22.4l15.6-5.6c1.4-.5 2.6-1.7 3-2.7.6-.8.8-2.5.3-3.9zm-31.3 35.2c-7.5 15.9-26.6 22.7-42.5 15.3-.1-.1-.3-.1-.4-.2-3.3-9.6-9.5-17.8-17.5-23.6-1-6.1-.2-12.6 2.6-18.7 7.5-15.9 26.6-22.7 42.5-15.3 15.9 7.5 22.8 26.6 15.3 42.5z"/></svg>