<svg height="800" viewBox="0 0 345.69 345.69" width="800" xmlns="http://www.w3.org/2000/svg"><path d="m239.634 222.105c-4.209 0-7.645-3.423-7.645-7.632 0-2.78 3.945-10.166 7.645-16.117 3.693 5.951 7.632 13.337 7.632 16.117 0 4.21-3.423 7.632-7.632 7.632zm-75.072 6.318c-.459.516-.57 1.249-.282 1.885.276.625.898 1.021 1.588 1.021h19.399l-80.882 86.721 47.93-68.988c.375-.529.417-1.226.117-1.796-.303-.576-.898-.937-1.543-.937h-35.437l45.741-54.632h35.878zm94.767-42.622h-189.964c-31.561 0-57.235-25.671-57.235-57.235 0-29.403 22.02-53.875 51.227-56.919l2.621-.615v-2.652c0-31.555 25.683-57.238 57.241-57.238 21.638 0 41.178 12.028 51.011 31.384l1.104 2.177 2.345-.685c5.258-1.531 10.62-2.3 15.94-2.3 20.794 0 39.979 11.322 50.086 29.546l1.075 1.924 2.137-.48c36.714-8.091 69.656 20.236 69.656 55.851 0 31.571-25.677 57.242-57.244 57.242zm61.027-73.085c-8.028-30.708-38.611-52.524-72.58-46.18-11.392-18.999-31.939-30.714-54.157-30.714-5.093 0-10.221.64-15.259 1.901-4.137-7.446-9.628-13.812-16.047-18.906 7.101-11.266 19.573-18.817 33.828-18.817 15.156 0 28.841 8.422 35.735 21.975l1.104 2.177 2.348-.682c18.074-5.251 37.356 3.057 46.237 19.086l1.062 1.924 2.144-.474c25.809-5.645 48.789 14.18 48.789 39.115-.011 11.743-5.122 22.273-13.204 29.595z"/><path d="m99.962 230.452c0-6.425-9.277-20.561-11.147-23.334l-2.312-3.441-2.318 3.441c-1.853 2.773-11.148 16.909-11.148 23.334 0 7.41 6.044 13.463 13.459 13.463 7.434.006 13.466-6.053 13.466-13.463z"/><path d="m193.499 257.414c-.301 0-.583.138-.774.378l-28.875 34.485c-.258.301-.315.721-.147 1.075.171.354.528.582.928.582h20.852l-34.858 50.158c-.309.438-.216 1.033.189 1.375.192.15.412.223.64.223.271 0 .547-.114.739-.318l58.3-62.51c.276-.301.354-.738.187-1.105-.162-.372-.528-.6-.931-.6h-11.373l19.527-22.05c.265-.301.324-.733.162-1.093-.162-.373-.528-.601-.919-.601h-23.647z"/></svg>