<svg enable-background="new 0 0 512 512" height="512" viewBox="0 0 512 512" width="512" xmlns="http://www.w3.org/2000/svg"><path d="m322 39.001c0-4.962 4.038-9 9-9h52c4.963 0 9 4.038 9 9v53.615h30v-53.615c0-21.505-17.495-39-39-39h-52c-21.505 0-39 17.495-39 39v53.615h30z"/><path d="m182.338 482.002c-6.554-10.184-10.338-22.24-10.338-35v-224.885h-137c-19.299 0-35 15.701-35 35v189.885c0 17.601 13.061 32.203 30 34.637v15.359c0 8.284 6.716 15 15 15s15-6.716 15-15v-14.997h122.338zm-122.338-204.885c0-8.284 6.716-15 15-15s15 6.716 15 15v149.885c0 8.284-6.716 15-15 15s-15-6.716-15-15z"/><path d="m140 168.501c0-4.962 4.038-9 9-9h23v-1.885c0-10.065 2.3-19.602 6.402-28.115h-29.402c-21.505 0-39 17.495-39 39v23.615h30z"/><path d="m477 122.617h-240c-19.299 0-35 15.701-35 35v289.385c0 17.601 13.061 32.203 30 34.637v15.359c0 8.284 6.716 15 15 15s15-6.716 15-15v-14.997h190v14.997c0 8.284 6.716 15 15 15s15-6.716 15-15v-15.359c16.938-2.434 30-17.036 30-34.637v-289.385c0-19.3-15.701-35-35-35zm-185 304.385c0 8.284-6.716 15-15 15s-15-6.716-15-15v-249.385c0-8.284 6.716-15 15-15s15 6.716 15 15zm145 15c-8.284 0-15-6.716-15-15v-249.385c0-8.284 6.716-15 15-15s15 6.716 15 15v249.385c0 8.284-6.716 15-15 15z"/></svg>