<svg enable-background="new 0 0 477.867 477.867" viewBox="0 0 477.867 477.867" xmlns="http://www.w3.org/2000/svg"><path d="m238.933 0c-131.959 0-238.933 106.974-238.933 238.933s106.974 238.933 238.933 238.933 238.933-106.974 238.933-238.933c-.14-131.9-107.032-238.792-238.933-238.933zm0 443.733c-113.108 0-204.8-91.692-204.8-204.8s91.692-204.8 204.8-204.8 204.8 91.692 204.8 204.8c-.122 113.058-91.742 204.678-204.8 204.8z"/><path d="m238.933 85.333c-84.831 0-153.6 68.769-153.6 153.6s68.769 153.6 153.6 153.6 153.6-68.769 153.6-153.6c-.103-84.788-68.812-153.496-153.6-153.6zm0 273.067c-65.98 0-119.467-53.487-119.467-119.467s53.487-119.467 119.467-119.467 119.467 53.488 119.467 119.467c-.075 65.949-53.518 119.392-119.467 119.467z"/></svg>