<svg height="800" viewBox="0 0 512 512" width="800" xmlns="http://www.w3.org/2000/svg"><path d="m185.158 223.146c2.486 0 4.965.076 7.436.248 11.88-40.59 41.969-72.75 80.556-87.742-17.131-26.503-46.904-44.056-80.804-44.056-49.751 0-90.689 37.788-95.66 86.236-6.976-2.162-14.389-3.323-22.066-3.323-41.209.001-74.62 33.405-74.62 74.613 0 41.216 33.411 74.619 74.619 74.619h.746c4.912-56.283 52.26-100.595 109.793-100.595z"/><path d="m434.638 265.688c-.03 0-.06.008-.098.008.045-1.288.098-2.576.098-3.872 0-61.956-50.218-112.174-112.167-112.174-58.03 0-105.77 44.07-111.578 100.572-8.136-2.516-16.769-3.873-25.735-3.873-48.064 0-87.027 38.964-87.027 87.028 0 48.063 38.963 87.027 87.027 87.027h249.48c42.723 0 77.362-34.631 77.362-77.354 0-42.73-34.639-77.362-77.362-77.362z"/></svg>